<svg width="1400" height="980" viewBox="0 0 1400 980" fill="none" xmlns="http://www.w3.org/2000/svg">
  <rect width="1400" height="980" rx="52" fill="url(#paint0_linear_453_11)"/>
  <g opacity="0.75">
    <path d="M102.5 784.5C214.108 675.766 325.579 628.386 443.5 622.5C589.163 615.231 663.77 702.694 789.5 688.5C907.125 675.223 1009.1 576.879 1117.5 441.5" stroke="url(#paint1_linear_453_11)" stroke-width="2.2"/>
    <path d="M87.5 714.5C202.24 613.041 317.912 569.289 431 561.5C569.908 551.934 652.431 625.037 779 611.5C925.524 595.828 1024.94 492.453 1148.5 345.5" stroke="url(#paint2_linear_453_11)" stroke-width="1.8"/>
    <path d="M110.5 859.5C233.968 756.402 342.61 715.975 461.5 713C598.315 709.577 680.218 785.62 801.5 772C896.78 761.303 986.545 694.202 1089.5 585.5" stroke="url(#paint3_linear_453_11)" stroke-width="1.6"/>
  </g>
  <g opacity="0.92">
    <path d="M241 216C301.832 147.445 360.907 113.167 435.5 117C516.56 121.166 577.514 169.349 640.5 240.5C691.898 298.548 766.915 324.601 830 317" stroke="#F27A54" stroke-width="2.2"/>
    <path d="M231 305C296.06 239.769 357.801 205.824 432 210C505.068 214.112 567.077 259.192 629 324.5C686.228 384.85 760.633 414.736 832 409.5" stroke="#FDB080" stroke-width="1.7"/>
    <path d="M267 142C329.813 82.5313 390.223 50.4352 457 54.5C527.817 58.8098 591.071 100.385 654.5 166.5C705.963 220.133 770.014 247.182 830 241" stroke="#FFBFA4" stroke-width="1.5"/>
  </g>
  <g opacity="0.88">
    <path d="M928.5 116.5L1135 177.5L1237.5 384L1174.5 607L974 683.5L781 613.5L710.5 411L777 213.5L928.5 116.5Z" stroke="#DEE5FF" stroke-width="2"/>
    <path d="M925 181L1083 227L1160 386.5L1110 550L960 606.5L816 555L763.5 409L811.5 264L925 181Z" stroke="#9DB7FF" stroke-width="1.6"/>
    <path d="M921.5 252L1037.5 285L1094 403L1057 522L946 563L839.5 523.5L799 414.5L834.5 304L921.5 252Z" stroke="#6D8EF7" stroke-width="1.4"/>
    <path d="M846.5 555L1087.5 226.5" stroke="#98A8E6" stroke-width="1.2" stroke-dasharray="5 8"/>
    <path d="M782 409.5L1160 386.5" stroke="#98A8E6" stroke-width="1.2" stroke-dasharray="5 8"/>
    <path d="M839.5 523.5L1135 177.5" stroke="#F27A54" stroke-width="1.3" stroke-dasharray="2 10"/>
  </g>
  <g filter="url(#filter0_d_453_11)">
    <circle cx="928.5" cy="116.5" r="11.5" fill="#FF8A5B"/>
    <circle cx="1237.5" cy="384" r="11.5" fill="#7CA2FF"/>
    <circle cx="974" cy="683.5" r="11.5" fill="#96D6CE"/>
    <circle cx="710.5" cy="411" r="11.5" fill="#FFD57A"/>
    <circle cx="1037.5" cy="285" r="9" fill="#F0F4FF"/>
    <circle cx="839.5" cy="523.5" r="9" fill="#F0F4FF"/>
    <circle cx="461.5" cy="713" r="10" fill="#FF9C73"/>
    <circle cx="640.5" cy="240.5" r="10" fill="#FFE1BA"/>
  </g>
  <g opacity="0.72">
    <path d="M316 816C368.5 780.5 420 762 478 762C544.5 762 605 784.5 664 821C720 855.5 777.5 870.5 846.5 860.5" stroke="#A6C7FF" stroke-width="1.4"/>
    <path d="M344.5 860.5C396 830.5 444.5 817.5 500.5 819C560 820.594 615 844 669.5 875.5C719.44 904.36 769.5 917 832 910.5" stroke="#CEE0FF" stroke-width="1.2"/>
    <path d="M287 741.5C339.5 711 394.5 695.5 459 696.5C533.5 697.655 597 725.5 661 765.5C719.5 802.067 785.5 817.5 861.5 806.5" stroke="#E5EEFF" stroke-width="1.2"/>
  </g>
  <circle cx="230" cy="185" r="104" fill="url(#paint4_radial_453_11)" opacity="0.28"/>
  <circle cx="1128" cy="776" r="156" fill="url(#paint5_radial_453_11)" opacity="0.24"/>
  <defs>
    <filter id="filter0_d_453_11" x="686" y="101" width="576" height="611.5" filterUnits="userSpaceOnUse" color-interpolation-filters="sRGB">
      <feFlood flood-opacity="0" result="BackgroundImageFix"/>
      <feColorMatrix in="SourceAlpha" type="matrix" values="0 0 0 0 0 0 0 0 0 0 0 0 0 0 0 0 0 0 127 0" result="hardAlpha"/>
      <feOffset dy="8"/>
      <feGaussianBlur stdDeviation="6.5"/>
      <feComposite in2="hardAlpha" operator="out"/>
      <feColorMatrix type="matrix" values="0 0 0 0 0.0533333 0 0 0 0 0.0941176 0 0 0 0 0.192157 0 0 0 0.18 0"/>
      <feBlend mode="normal" in2="BackgroundImageFix" result="effect1_dropShadow_453_11"/>
      <feBlend mode="normal" in="SourceGraphic" in2="effect1_dropShadow_453_11" result="shape"/>
    </filter>
    <linearGradient id="paint0_linear_453_11" x1="121" y1="78" x2="1214.5" y2="923.5" gradientUnits="userSpaceOnUse">
      <stop stop-color="#FFF9F2"/>
      <stop offset="0.45" stop-color="#EEF3FF"/>
      <stop offset="1" stop-color="#E8F7F3"/>
    </linearGradient>
    <linearGradient id="paint1_linear_453_11" x1="173" y1="715" x2="1086.5" y2="458.5" gradientUnits="userSpaceOnUse">
      <stop stop-color="#D76F4A"/>
      <stop offset="1" stop-color="#5F82F0"/>
    </linearGradient>
    <linearGradient id="paint2_linear_453_11" x1="154" y1="647.5" x2="1127.5" y2="369.5" gradientUnits="userSpaceOnUse">
      <stop stop-color="#F29F76"/>
      <stop offset="1" stop-color="#9DB7FF"/>
    </linearGradient>
    <linearGradient id="paint3_linear_453_11" x1="202" y1="816" x2="1037" y2="618" gradientUnits="userSpaceOnUse">
      <stop stop-color="#D1E2FF"/>
      <stop offset="1" stop-color="#79C7BA"/>
    </linearGradient>
    <radialGradient id="paint4_radial_453_11" cx="0" cy="0" r="1" gradientUnits="userSpaceOnUse" gradientTransform="translate(230 185) rotate(90) scale(104)">
      <stop stop-color="#FDB080"/>
      <stop offset="1" stop-color="#FDB080" stop-opacity="0"/>
    </radialGradient>
    <radialGradient id="paint5_radial_453_11" cx="0" cy="0" r="1" gradientUnits="userSpaceOnUse" gradientTransform="translate(1128 776) rotate(90) scale(156)">
      <stop stop-color="#8CB5FF"/>
      <stop offset="1" stop-color="#8CB5FF" stop-opacity="0"/>
    </radialGradient>
  </defs>
</svg>
