<svg width="1200" height="750" viewBox="0 0 1200 750" fill="none" xmlns="http://www.w3.org/2000/svg" role="img" aria-labelledby="title desc">
  <title id="title">Kendall shape space preview</title>
  <desc id="desc">Landmark configurations are centered and normalized onto a pre-shape sphere, then rotations are quotiented out to form shape space.</desc>

  <defs>
    <linearGradient id="background" x1="70" y1="52" x2="1120" y2="720" gradientUnits="userSpaceOnUse">
      <stop stop-color="#F8FAFC" />
      <stop offset="1" stop-color="#DDE4EA" />
    </linearGradient>
    <linearGradient id="panel" x1="98" y1="96" x2="1098" y2="650" gradientUnits="userSpaceOnUse">
      <stop stop-color="#FFFFFF" />
      <stop offset="1" stop-color="#EEF3F6" />
    </linearGradient>
    <linearGradient id="sphere" x1="560" y1="200" x2="850" y2="500" gradientUnits="userSpaceOnUse">
      <stop stop-color="#FFFFFF" />
      <stop offset="1" stop-color="#D7E0E6" />
    </linearGradient>
    <filter id="soft-shadow" x="70" y="75" width="1060" height="600" filterUnits="userSpaceOnUse" color-interpolation-filters="sRGB">
      <feDropShadow dx="0" dy="18" stdDeviation="18" flood-color="#1E2933" flood-opacity="0.12" />
    </filter>
  </defs>

  <rect width="1200" height="750" rx="24" fill="url(#background)" />
  <rect x="100" y="96" width="1000" height="558" rx="18" fill="url(#panel)" stroke="#C2CCD4" filter="url(#soft-shadow)" />

  <text x="150" y="158" fill="#1F2933" font-size="38" font-weight="700" font-family="system-ui, -apple-system, BlinkMacSystemFont, 'Segoe UI', sans-serif">Kendall shape space</text>
  <text x="151" y="194" fill="#52616B" font-size="21" font-family="system-ui, -apple-system, BlinkMacSystemFont, 'Segoe UI', sans-serif">remove translation, scale, and rotation before measuring shape</text>

  <g transform="translate(150 258)">
    <text x="0" y="-34" fill="#34414A" font-size="20" font-weight="700" font-family="system-ui, -apple-system, BlinkMacSystemFont, 'Segoe UI', sans-serif">landmarks</text>
    <path d="M18 150L118 24L226 88L190 206L70 216L18 150Z" stroke="#1F2933" stroke-width="6" stroke-linejoin="round" />
    <path d="M54 172L154 46L262 110L226 228L106 238L54 172Z" stroke="#7A8791" stroke-width="4" stroke-linejoin="round" />
    <path d="M5 112C48 58 116 25 210 14" stroke="#A9B5BE" stroke-width="3" stroke-dasharray="9 9" />
    <path d="M92 252C157 265 224 250 285 204" stroke="#A9B5BE" stroke-width="3" stroke-dasharray="9 9" />

    <g fill="#1F2933">
      <circle cx="18" cy="150" r="10" />
      <circle cx="118" cy="24" r="10" />
      <circle cx="226" cy="88" r="10" />
      <circle cx="190" cy="206" r="10" />
      <circle cx="70" cy="216" r="10" />
    </g>
    <g fill="#7A8791">
      <circle cx="54" cy="172" r="8" />
      <circle cx="154" cy="46" r="8" />
      <circle cx="262" cy="110" r="8" />
      <circle cx="226" cy="228" r="8" />
      <circle cx="106" cy="238" r="8" />
    </g>
  </g>

  <g transform="translate(465 362)" stroke="#5A6872" stroke-width="5" stroke-linecap="round" stroke-linejoin="round">
    <path d="M0 0H86" />
    <path d="M64 -22L92 0L64 22" />
  </g>

  <g transform="translate(555 214)">
    <text x="130" y="10" text-anchor="middle" fill="#34414A" font-size="20" font-weight="700" font-family="system-ui, -apple-system, BlinkMacSystemFont, 'Segoe UI', sans-serif">pre-shape sphere</text>
    <circle cx="130" cy="172" r="140" fill="url(#sphere)" stroke="#A7B4BE" stroke-width="3" />
    <ellipse cx="130" cy="172" rx="88" ry="140" stroke="#C1CCD4" stroke-width="2" />
    <ellipse cx="130" cy="172" rx="140" ry="42" stroke="#C1CCD4" stroke-width="2" />
    <path d="M38 118C89 152 166 156 238 126" stroke="#6C7A84" stroke-width="4" stroke-linecap="round" />
    <path d="M56 236C108 206 174 203 220 232" stroke="#1F2933" stroke-width="5" stroke-linecap="round" />
    <g fill="#1F2933">
      <circle cx="58" cy="236" r="9" />
      <circle cx="107" cy="147" r="9" />
      <circle cx="169" cy="134" r="9" />
      <circle cx="221" cy="232" r="9" />
      <circle cx="144" cy="258" r="9" />
    </g>
    <g fill="#7A8791">
      <circle cx="38" cy="118" r="7" />
      <circle cx="238" cy="126" r="7" />
    </g>
  </g>

  <g transform="translate(852 362)" stroke="#5A6872" stroke-width="5" stroke-linecap="round" stroke-linejoin="round">
    <path d="M0 0H80" />
    <path d="M58 -22L86 0L58 22" />
  </g>

  <g transform="translate(934 250)">
    <text x="58" y="-26" text-anchor="middle" fill="#34414A" font-size="20" font-weight="700" font-family="system-ui, -apple-system, BlinkMacSystemFont, 'Segoe UI', sans-serif">shape</text>
    <path d="M8 106C52 34 110 30 152 100C116 178 50 178 8 106Z" fill="#EEF3F6" stroke="#A7B4BE" stroke-width="3" />
    <path d="M36 112L82 54L132 86L116 142L62 150L36 112Z" stroke="#1F2933" stroke-width="5" stroke-linejoin="round" />
    <path d="M28 196C76 224 136 212 172 166" stroke="#A9B5BE" stroke-width="3" stroke-dasharray="8 8" />
    <path d="M16 40C70 58 125 48 164 10" stroke="#A9B5BE" stroke-width="3" stroke-dasharray="8 8" />
    <g fill="#1F2933">
      <circle cx="36" cy="112" r="9" />
      <circle cx="82" cy="54" r="9" />
      <circle cx="132" cy="86" r="9" />
      <circle cx="116" cy="142" r="9" />
      <circle cx="62" cy="150" r="9" />
    </g>
  </g>

  <g transform="translate(150 588)">
    <rect x="0" y="-28" width="213" height="44" rx="8" fill="#1F2933" />
    <text x="106" y="0" text-anchor="middle" fill="#FFFFFF" font-size="18" font-weight="700" font-family="system-ui, -apple-system, BlinkMacSystemFont, 'Segoe UI', sans-serif">center + normalize</text>
    <rect x="232" y="-28" width="196" height="44" rx="8" fill="#52616B" />
    <text x="330" y="0" text-anchor="middle" fill="#FFFFFF" font-size="18" font-weight="700" font-family="system-ui, -apple-system, BlinkMacSystemFont, 'Segoe UI', sans-serif">align rotations</text>
    <rect x="447" y="-28" width="164" height="44" rx="8" fill="#8AA0A8" />
    <text x="529" y="0" text-anchor="middle" fill="#12202A" font-size="18" font-weight="700" font-family="system-ui, -apple-system, BlinkMacSystemFont, 'Segoe UI', sans-serif">measure shape</text>
  </g>
</svg>
